<svg width="40" height="40" viewBox="0 0 40 40" fill="none" xmlns="http://www.w3.org/2000/svg">
<path d="M37.8573 13.9862C37.3295 12.2991 37.5545 9.76663 36.1827 7.81123C34.8 5.84043 32.3952 5.28026 31.0373 4.2551C29.6938 3.24075 28.4438 1.03341 26.1837 0.272123C23.9873 -0.467715 21.7414 0.536236 20 0.536236C18.2588 0.536236 16.013 -0.467957 13.8163 0.272043C11.5566 1.03317 10.3056 3.24099 8.96289 4.25486C7.60648 5.27881 5.19992 5.84051 3.8175 7.81099C2.4468 9.76478 2.66953 12.3031 2.14266 13.9861C1.64125 15.588 0 17.5105 0 20.0002C0 22.4914 1.63938 24.4065 2.14266 26.0141C2.67047 27.7012 2.44547 30.2337 3.81734 32.1891C5.19992 34.16 7.60461 34.7201 8.96266 35.7453C10.306 36.7595 11.5562 38.967 13.8163 39.7282C16.0112 40.4676 18.2606 39.4641 20 39.4641C21.737 39.4641 23.9916 40.4665 26.1837 39.7283C28.4434 38.9672 29.6937 36.7598 31.0371 35.7455C32.3935 34.7215 34.8001 34.1598 36.1825 32.1894C37.5533 30.2355 37.3304 27.6974 37.8573 26.0142C38.3588 24.4123 40 22.4898 40 20.0002C40 17.5091 38.361 15.5946 37.8573 13.9862V13.9862ZM34.8838 25.0223C34.2686 26.988 34.4298 29.1879 33.6516 30.2971C32.863 31.4211 30.7913 31.9344 29.1926 33.1415C27.6114 34.3352 26.5032 36.2273 25.2143 36.6614C23.9949 37.0723 22.0077 36.2381 20.0001 36.2381C17.9777 36.2381 16.011 37.074 14.7858 36.6614C13.497 36.2273 12.3904 34.3365 10.8075 33.1415C9.21828 31.9417 7.13469 31.4177 6.34836 30.2969C5.57273 29.1915 5.72781 26.9763 5.11633 25.0223C4.51695 23.1079 3.125 21.4503 3.125 20.0002C3.125 18.5486 4.5157 16.8967 5.11617 14.9781C5.73141 13.0124 5.57023 10.8124 6.34836 9.70325C7.13648 8.58002 9.20984 8.06494 10.8075 6.85881C12.3937 5.66131 13.4949 3.77365 14.7856 3.3389C16.004 2.92857 17.9977 3.7622 19.9999 3.7622C22.0259 3.7622 23.9877 2.92575 25.2142 3.3389C26.5028 3.77293 27.6104 5.66454 29.1926 6.85889C30.7816 8.05865 32.8653 8.5826 33.6516 9.70333C34.4274 10.8091 34.2715 13.022 34.8837 14.9779V14.978C35.483 16.8924 36.875 18.5501 36.875 20.0002C36.875 21.4517 35.4843 23.1036 34.8838 25.0223V25.0223ZM27.1987 14.8232C27.8089 15.4531 27.8089 16.4743 27.1987 17.1041L19.3779 25.1772C18.7677 25.8071 17.7783 25.807 17.1681 25.1772L12.8014 20.6696C12.1912 20.0397 12.1911 19.0185 12.8013 18.3886C13.4116 17.7588 14.401 17.7587 15.011 18.3886L18.273 21.7557L24.9888 14.8232C25.5991 14.1933 26.5884 14.1933 27.1987 14.8232V14.8232Z" fill="#3A3A3A"/>
</svg>
