<?xml version="1.0" encoding="utf-8"?><svg viewBox="0 0 24 24" xmlns="http://www.w3.org/2000/svg" xmlns:xlink="http://www.w3.org/1999/xlink"><style>:root>svg{display:none}:root>svg:target{display:block}</style><svg viewBox="0 0 24 24" id="arrow-go-to" xmlns="http://www.w3.org/2000/svg"><path d="M19.365 12.56l-4.98 5a.79.79 0 01-.56.24c-.2 0-.4-.08-.56-.24a.797.797 0 010-1.14l3.62-3.64H5.205c-.44 0-.8-.36-.8-.8 0-.44.36-.8.8-.8h11.68l-3.62-3.64a.797.797 0 010-1.14c.32-.32.82-.32 1.14 0l4.98 5c.3.34.3.86-.02 1.16z" /></svg><svg viewBox="0 0 20 20" id="arrow-menu" xmlns="http://www.w3.org/2000/svg"><path fill-rule="evenodd" clip-rule="evenodd" d="M16.47 6.864a.9.9 0 010 1.272l-5.834 5.834a.9.9 0 01-1.272 0L3.53 8.136a.9.9 0 011.273-1.272L10 12.06l5.197-5.197a.9.9 0 011.273 0z" /></svg><svg viewBox="0 0 24 24" id="arrow-swiper" xmlns="http://www.w3.org/2000/svg"><path d="M15 5l-7 7 7 7" stroke-width="1.8" stroke-linecap="round" stroke-linejoin="round"/></svg><svg viewBox="0 0 24 24" id="cart" xmlns="http://www.w3.org/2000/svg"><path d="M1 2.5h1.654c.479 0 .718 0 .912.087a1 1 0 01.423.355c.119.177.16.413.242.884L4.609 6m0 0l.883 5.077c.179 1.03.269 1.546.534 1.917a2 2 0 00.937.714c.428.157.949.107 1.99.006l9.661-.935c1.016-.098 1.524-.147 1.908-.376a2 2 0 00.788-.867c.19-.405.19-.915.19-1.935v0c0-1.085 0-1.628-.208-2.047a2 2 0 00-.852-.877c-.413-.22-.955-.237-2.04-.269L4.61 6z" stroke-width="1.8" stroke-linecap="round" stroke-linejoin="round"/><circle cx="8.5" cy="19" r="2" stroke-width="1.8"/><circle cx="18" cy="19" r="2" stroke-width="1.8"/></svg><svg viewBox="0 0 24 24" id="heart" xmlns="http://www.w3.org/2000/svg"><path d="M12 21.054C-8 10 6-2 12 5.588 18-2 32 10 12 21.054z" stroke-width="1.8"/></svg><svg viewBox="0 0 20 20" id="location" xmlns="http://www.w3.org/2000/svg"><path fill-rule="evenodd" clip-rule="evenodd" d="M10.974 18.541c2.116-1.443 6.943-5.236 6.943-9.791a7.917 7.917 0 10-15.834 0c0 4.555 4.827 8.348 6.943 9.791a1.718 1.718 0 001.948 0zM10 11.25a2.5 2.5 0 100-5 2.5 2.5 0 000 5z" /></svg><svg viewBox="0 0 20 20" id="phone" xmlns="http://www.w3.org/2000/svg"><path d="M13.43 13.067l-.515.773c-.103.154-.239.286-.418.334-.588.155-2.147.225-4.521-2.15C5.6 9.65 5.67 8.09 5.825 7.503c.048-.18.18-.315.334-.418l.773-.516a1.253 1.253 0 00.348-1.737l-1.46-2.19a1.253 1.253 0 00-1.537-.457l-.659.282c-.5.215-.908.6-1.152 1.086-.203.407-.36.836-.382 1.29-.068 1.432.246 4.96 4.176 8.89 3.93 3.93 7.458 4.244 8.89 4.176.454-.021.883-.179 1.29-.382a2.302 2.302 0 001.086-1.152l.282-.66c.238-.554.046-1.2-.456-1.535l-2.191-1.46a1.253 1.253 0 00-1.737.347z" /></svg><svg viewBox="0 0 20 20" id="search" xmlns="http://www.w3.org/2000/svg"><path d="M16.667 16.667L12.58 12.58m0 0a5.417 5.417 0 10-7.66-7.66 5.417 5.417 0 007.66 7.66z" stroke-width="1.8" stroke-linecap="round" stroke-linejoin="round"/></svg><svg viewBox="0 0 24 24" id="send" xmlns="http://www.w3.org/2000/svg"><path d="M20.782 3.217a.75.75 0 00-.787-.172l-16.5 6a.75.75 0 000 1.402l6.442 2.573 4.756-4.77 1.057 1.057-4.777 4.778 2.58 6.442a.75.75 0 00.697.473.75.75 0 00.69-.495l6-16.5a.75.75 0 00-.158-.788z" /></svg><svg viewBox="0 0 24 24" id="share" xmlns="http://www.w3.org/2000/svg"><path d="M18 16c-.788 0-1.5.31-2.034.807L8.91 12.7c.05-.23.09-.46.09-.7 0-.24-.04-.47-.09-.7l7.05-4.11c.54.5 1.25.81 2.04.81 1.66 0 3-1.34 3-3s-1.34-3-3-3-3 1.34-3 3c0 .24.04.47.09.7L8.04 9.81C7.5 9.31 6.79 9 6 9c-1.66 0-3 1.34-3 3s1.34 3 3 3c.79 0 1.5-.31 2.04-.81l7.048 4.118A2.984 2.984 0 0015 19a3 3 0 103-3z" /></svg></svg>